<?xml version="1.0" encoding="UTF-8"?>
<svg width="137px" height="39px" viewBox="0 0 137 39" version="1.1" xmlns="http://www.w3.org/2000/svg" xmlns:xlink="http://www.w3.org/1999/xlink">
    <!-- Generator: sketchtool 41.2 (35397) - http://www.bohemiancoding.com/sketch -->
    <title>9AC0A56A-6A2E-4E25-AA19-8B2058A84523</title>
    <desc>Created with sketchtool.</desc>
    <defs></defs>
    <g id="Marketing-Site-Ideas" stroke="none" stroke-width="1" fill="none" fill-rule="evenodd">
        <g id="Free-Welcome-Dialog" transform="translate(-222.000000, -107.000000)" fill="#FFFFFF">
            <g id="fullstorylogo" transform="translate(224.000000, 107.000000)">
                <g id="Rectangle-14-+-fullstory-copy-4-+-Line-Copy-Copy" transform="translate(-2.000000, 0.000000)">
                    <path d="M7.44773546,14.6578209 L13.4332095,14.6578215 L13.4332095,10.9711574 L7.44773546,10.9711569 L7.44773546,7.24007517 C7.44773546,4.84152266 8.5180687,3.90875224 10.3911519,3.90875224 C11.7290684,3.90875224 12.7102072,4.30851099 13.7805405,5.01919322 L13.7805405,0.97718806 C12.66561,0.310923474 11.4614851,0 9.90058247,0 C5.75304116,0 3.07720806,2.39855251 3.07720806,7.28449281 L3.07720806,10.9711569 L0,10.9711569 L0,14.6578209 L3.07720806,14.6578209 L3.07720806,30.648171 L7.44773546,30.648171 L7.44773546,14.6578209 Z M33.2517798,10.9711569 L28.8812524,10.9711569 L28.8812524,27.1835951 C27.7217247,27.3612657 26.4730026,27.450101 25.4918638,27.450101 C22.5930446,27.450101 20.8091558,26.3840776 20.8091558,23.4525134 L20.8091558,10.9711569 L16.4386285,10.9711569 L16.4386285,23.7634369 C16.4386285,29.2712242 19.9172115,31.0923474 25.5810582,31.0923474 C27.9001136,31.0923474 30.9327244,30.7814239 33.2517798,30.2039946 L33.2517798,10.9711569 Z M41.9185058,0.444176391 L37.5033812,0.444176391 L37.5033812,30.648171 L41.9185058,30.648171 L41.9185058,0.444176391 Z M50.5406347,0.444176391 L46.1255101,0.444176391 L46.1255101,30.648171 L50.5406347,30.648171 L50.5406347,0.444176391 Z M53.8556946,29.4933124 C55.3274028,30.4705004 57.6464582,31.0923474 59.9655135,31.0923474 C64.2468465,31.0923474 67.413249,29.2268065 67.413249,25.0959661 C67.413249,21.542555 65.4509714,19.8546847 60.9466523,18.8774966 C58.6721942,18.2556497 57.824847,17.5893851 57.824847,16.3012736 C57.824847,15.013162 58.8505831,14.0803916 60.7682635,14.0803916 C62.8643327,14.0803916 64.559027,14.8354915 66.2983185,16.0791854 L66.2983185,12.0371802 C64.6482214,11.0155745 62.8643327,10.5269805 60.6344718,10.5269805 C56.6207221,10.5269805 53.5881113,12.4813566 53.5881113,16.4789441 C53.5881113,19.8991023 55.3274028,21.542555 59.4303469,22.4753254 C61.9723883,23.14159 63.131916,23.7190193 63.131916,25.3180543 C63.131916,26.8726717 61.8385967,27.5389362 59.8763191,27.5389362 C57.8694443,27.5389362 55.6841806,26.6950011 53.8556946,25.3180543 L53.8556946,29.4933124 Z M67.6511008,14.6578209 L70.6391144,14.6578209 L70.6391144,25.0071308 C70.6391144,29.4933124 73.3595448,31.0923474 76.5705445,31.0923474 C78.4436276,31.0923474 80.0491275,30.6925886 81.3424468,30.026324 L81.3424468,26.0731542 C80.1383219,26.7838364 79.0233915,27.1835951 77.7300722,27.1835951 C76.0353779,27.1835951 75.0096418,26.3840776 75.0096418,24.0299428 L75.0096418,14.6578209 L80.6288913,14.6578209 L80.6288913,10.9711569 L75.0096418,10.9711569 L75.0096418,6.17405184 L70.6391144,6.17405184 L70.6391144,10.9711569 L67.6511008,10.9711569 L67.6511008,14.6578209 Z M82.0708681,20.8318727 C82.0708681,26.9170893 86.352201,31.0923474 92.2390338,31.0923474 C98.1704639,31.0923474 102.451797,26.9170893 102.451797,20.8318727 C102.451797,14.7022385 98.1704639,10.5269805 92.2390338,10.5269805 C86.352201,10.5269805 82.0708681,14.7022385 82.0708681,20.8318727 L82.0708681,20.8318727 Z M97.992075,20.8318727 C97.992075,24.7850426 95.6284224,27.3168481 92.2390338,27.3168481 C88.9388397,27.3168481 86.5305899,24.7850426 86.5305899,20.8318727 C86.5305899,16.8342852 88.9388397,14.3024798 92.2390338,14.3024798 C95.6284224,14.3024798 97.992075,16.8342852 97.992075,20.8318727 L97.992075,20.8318727 Z M109.602218,15.4129208 C110.494162,15.0575797 111.564495,14.7910738 112.902412,14.7910738 C113.616543,14.7910738 115.00108,14.9945884 115.00108,14.9945884 L113.397355,10.6708391 C113.397355,10.6708391 113.123696,10.6602334 112.902412,10.6602334 C110.092787,10.6602334 107.327759,11.4153333 105.187093,12.6146095 L105.187093,30.648171 L109.602218,30.648171 L109.602218,15.4129208 Z M120.543402,10.9711569 L115.816097,10.9711569 L123.977388,31.5365238 L121.21236,38.643346 L125.53829,38.643346 L136.241623,10.9711569 L131.692706,10.9711569 L126.162651,26.4729129 L120.543402,10.9711569 Z" id="fullstory-copy-4"></path>
                </g>
            </g>
        </g>
    </g>
</svg>