<svg width="60" height="60" viewBox="0 0 60 60" fill="none" xmlns="http://www.w3.org/2000/svg">
<g clip-path="url(#clip0_519_11636)">
<path d="M30 60C46.5685 60 60 46.5685 60 30C60 13.4315 46.5685 0 30 0C13.4315 0 0 13.4315 0 30C0 46.5685 13.4315 60 30 60Z" fill="#135050"/>
<path d="M50 35.5333V32.2193H36.2092L48.085 25.4103L48.1541 25.3704L46.4944 22.5032L34.5468 29.3521L41.4037 17.5561L41.4436 17.4869L38.5976 15.8538L38.5577 15.8299L31.661 27.6951V14H28.3337V27.7084L21.4795 15.9097L21.4396 15.8405L18.5937 17.4736L18.5538 17.4976L25.4505 29.3627L13.572 22.5538L13.5029 22.5139L11.8432 25.3811L23.7881 32.2299H10V35.536H22.437C25.9585 35.1716 27.8496 33.2114 28.8177 31.6288C29.5439 30.4399 29.871 29.2856 30.004 28.6792C30.137 29.2856 30.4641 30.4399 31.1902 31.6288C32.1584 33.2087 34.0495 35.169 37.579 35.536H50V35.5333Z" fill="white"/>
</g>
<defs>
<clipPath id="clip0_519_11636">
<rect width="60" height="60" fill="white"/>
</clipPath>
</defs>
</svg>
